<svg xmlns="http://www.w3.org/2000/svg" viewBox="0 0 512 512" width="512" height="512">
  <title>BloomMoney</title>
  <rect width="512" height="512" fill="#0f1117"/>
  <g transform="translate(256 256) scale(0.86)">
    <g fill="#15803d">
      <ellipse cx="0" cy="-118" rx="70" ry="104" transform="rotate(36)"/>
      <ellipse cx="0" cy="-118" rx="70" ry="104" transform="rotate(108)"/>
      <ellipse cx="0" cy="-118" rx="70" ry="104" transform="rotate(180)"/>
      <ellipse cx="0" cy="-118" rx="70" ry="104" transform="rotate(252)"/>
      <ellipse cx="0" cy="-118" rx="70" ry="104" transform="rotate(324)"/>
    </g>
    <g fill="#22c55e">
      <ellipse cx="0" cy="-122" rx="74" ry="108"/>
      <ellipse cx="0" cy="-122" rx="74" ry="108" transform="rotate(72)"/>
      <ellipse cx="0" cy="-122" rx="74" ry="108" transform="rotate(144)"/>
      <ellipse cx="0" cy="-122" rx="74" ry="108" transform="rotate(216)"/>
      <ellipse cx="0" cy="-122" rx="74" ry="108" transform="rotate(288)"/>
    </g>
    <circle r="86" fill="#0f1117" opacity="0.35"/>
    <circle r="78" fill="#f5b301"/>
    <circle r="78" fill="none" stroke="#b7791f" stroke-width="10"/>
    <circle r="56" fill="none" stroke="#fde68a" stroke-width="6"/>
    <path d="M22 -28 C16 -38 6 -42 -4 -42 C-20 -42 -30 -34 -30 -22 C-30 -8 -18 -3 0 2 C18 7 30 12 30 26 C30 38 18 44 2 44 C-10 44 -22 38 -28 28 M0 -58 V58" fill="none" stroke="#8a5a00" stroke-width="12" stroke-linecap="round"/>
  </g>
</svg>
